<mxfile host="app.diagrams.net" modified="2024-07-15T08:01:52.570Z" agent="Mozilla/5.0 (Macintosh; Intel Mac OS X 10_15_7) AppleWebKit/537.36 (KHTML, like Gecko) Chrome/126.0.0.0 Safari/537.36" etag="VLFqXqEnJB1I0TY5tCEV" version="24.6.5" type="github">
  <diagram name="Seite-1" id="cYS-9EuOB4i6pcKZ9MJi">
    <mxGraphModel dx="2208" dy="1963" grid="1" gridSize="10" guides="1" tooltips="1" connect="1" arrows="1" fold="1" page="1" pageScale="1" pageWidth="827" pageHeight="1169" math="0" shadow="0">
      <root>
        <mxCell id="0" />
        <mxCell id="1" parent="0" />
        <mxCell id="zZJHMVHqWspqlWFaA559-40" value="PrÃ¼fung buchen (Formular)" style="strokeWidth=1;shadow=0;dashed=0;align=center;html=1;shape=mxgraph.mockup.buttons.button;strokeColor=#666666;fontColor=#ffffff;mainText=;buttonStyle=round;fontSize=17;fontStyle=1;fillColor=#008cff;whiteSpace=wrap;" parent="1" vertex="1">
          <mxGeometry x="-785" y="-1060" width="150" height="50" as="geometry" />
        </mxCell>
        <mxCell id="zZJHMVHqWspqlWFaA559-54" value="Buchungsformular" style="shape=table;childLayout=tableLayout;startSize=40;collapsible=0;recursiveResize=0;expand=0;" parent="1" vertex="1">
          <mxGeometry x="-750" y="50" width="520" height="640" as="geometry" />
        </mxCell>
        <mxCell id="zZJHMVHqWspqlWFaA559-55" value="" style="shape=tableRow;horizontal=0;swimlaneHead=0;swimlaneBody=0;top=0;left=0;strokeColor=inherit;bottom=0;right=0;dropTarget=0;fontStyle=0;fillColor=none;points=[[0,0.5],[1,0.5]];portConstraint=eastwest;startSize=40;collapsible=0;recursiveResize=0;expand=0;" parent="zZJHMVHqWspqlWFaA559-54" vertex="1">
          <mxGeometry y="40" width="520" height="120" as="geometry" />
        </mxCell>
        <mxCell id="zZJHMVHqWspqlWFaA559-56" value="Datum" style="swimlane;swimlaneHead=0;swimlaneBody=0;fontStyle=0;strokeColor=inherit;connectable=0;fillColor=none;startSize=60;collapsible=0;recursiveResize=0;expand=0;" parent="zZJHMVHqWspqlWFaA559-55" vertex="1">
          <mxGeometry x="40" width="120" height="120" as="geometry">
            <mxRectangle width="120" height="120" as="alternateBounds" />
          </mxGeometry>
        </mxCell>
        <mxCell id="zZJHMVHqWspqlWFaA559-57" value="" style="swimlane;swimlaneHead=0;swimlaneBody=0;fontStyle=0;strokeColor=inherit;connectable=0;fillColor=none;startSize=60;collapsible=0;recursiveResize=0;expand=0;" parent="zZJHMVHqWspqlWFaA559-55" vertex="1">
          <mxGeometry x="160" width="120" height="120" as="geometry">
            <mxRectangle width="120" height="120" as="alternateBounds" />
          </mxGeometry>
        </mxCell>
        <mxCell id="zZJHMVHqWspqlWFaA559-58" value="" style="swimlane;swimlaneHead=0;swimlaneBody=0;fontStyle=0;strokeColor=inherit;connectable=0;fillColor=none;startSize=60;collapsible=0;recursiveResize=0;expand=0;" parent="zZJHMVHqWspqlWFaA559-55" vertex="1">
          <mxGeometry x="280" width="120" height="120" as="geometry">
            <mxRectangle width="120" height="120" as="alternateBounds" />
          </mxGeometry>
        </mxCell>
        <mxCell id="zZJHMVHqWspqlWFaA559-59" value="" style="swimlane;swimlaneHead=0;swimlaneBody=0;fontStyle=0;strokeColor=inherit;connectable=0;fillColor=none;startSize=60;collapsible=0;recursiveResize=0;expand=0;" parent="zZJHMVHqWspqlWFaA559-55" vertex="1">
          <mxGeometry x="400" width="120" height="120" as="geometry">
            <mxRectangle width="120" height="120" as="alternateBounds" />
          </mxGeometry>
        </mxCell>
        <mxCell id="zZJHMVHqWspqlWFaA559-60" value="" style="shape=tableRow;horizontal=0;swimlaneHead=0;swimlaneBody=0;top=0;left=0;strokeColor=inherit;bottom=0;right=0;dropTarget=0;fontStyle=0;fillColor=none;points=[[0,0.5],[1,0.5]];portConstraint=eastwest;startSize=40;collapsible=0;recursiveResize=0;expand=0;" parent="zZJHMVHqWspqlWFaA559-54" vertex="1">
          <mxGeometry y="160" width="520" height="120" as="geometry" />
        </mxCell>
        <mxCell id="zZJHMVHqWspqlWFaA559-61" value="" style="swimlane;swimlaneHead=0;swimlaneBody=0;fontStyle=0;connectable=0;strokeColor=inherit;fillColor=none;startSize=0;collapsible=0;recursiveResize=0;expand=0;" parent="zZJHMVHqWspqlWFaA559-60" vertex="1">
          <mxGeometry x="40" width="120" height="120" as="geometry">
            <mxRectangle width="120" height="120" as="alternateBounds" />
          </mxGeometry>
        </mxCell>
        <mxCell id="zZJHMVHqWspqlWFaA559-62" value="" style="swimlane;swimlaneHead=0;swimlaneBody=0;fontStyle=0;connectable=0;strokeColor=inherit;fillColor=none;startSize=0;collapsible=0;recursiveResize=0;expand=0;" parent="zZJHMVHqWspqlWFaA559-60" vertex="1">
          <mxGeometry x="160" width="120" height="120" as="geometry">
            <mxRectangle width="120" height="120" as="alternateBounds" />
          </mxGeometry>
        </mxCell>
        <mxCell id="zZJHMVHqWspqlWFaA559-63" value="" style="swimlane;swimlaneHead=0;swimlaneBody=0;fontStyle=0;connectable=0;strokeColor=inherit;fillColor=none;startSize=0;collapsible=0;recursiveResize=0;expand=0;" parent="zZJHMVHqWspqlWFaA559-60" vertex="1">
          <mxGeometry x="280" width="120" height="120" as="geometry">
            <mxRectangle width="120" height="120" as="alternateBounds" />
          </mxGeometry>
        </mxCell>
        <mxCell id="zZJHMVHqWspqlWFaA559-64" value="" style="swimlane;swimlaneHead=0;swimlaneBody=0;fontStyle=0;connectable=0;strokeColor=inherit;fillColor=none;startSize=0;collapsible=0;recursiveResize=0;expand=0;" parent="zZJHMVHqWspqlWFaA559-60" vertex="1">
          <mxGeometry x="400" width="120" height="120" as="geometry">
            <mxRectangle width="120" height="120" as="alternateBounds" />
          </mxGeometry>
        </mxCell>
        <mxCell id="zZJHMVHqWspqlWFaA559-65" value="" style="shape=tableRow;horizontal=0;swimlaneHead=0;swimlaneBody=0;top=0;left=0;strokeColor=inherit;bottom=0;right=0;dropTarget=0;fontStyle=0;fillColor=none;points=[[0,0.5],[1,0.5]];portConstraint=eastwest;startSize=40;collapsible=0;recursiveResize=0;expand=0;" parent="zZJHMVHqWspqlWFaA559-54" vertex="1">
          <mxGeometry y="280" width="520" height="120" as="geometry" />
        </mxCell>
        <mxCell id="zZJHMVHqWspqlWFaA559-66" value="" style="swimlane;swimlaneHead=0;swimlaneBody=0;fontStyle=0;connectable=0;strokeColor=inherit;fillColor=none;startSize=0;collapsible=0;recursiveResize=0;expand=0;" parent="zZJHMVHqWspqlWFaA559-65" vertex="1">
          <mxGeometry x="40" width="120" height="120" as="geometry">
            <mxRectangle width="120" height="120" as="alternateBounds" />
          </mxGeometry>
        </mxCell>
        <mxCell id="zZJHMVHqWspqlWFaA559-67" value="" style="swimlane;swimlaneHead=0;swimlaneBody=0;fontStyle=0;connectable=0;strokeColor=inherit;fillColor=none;startSize=0;collapsible=0;recursiveResize=0;expand=0;" parent="zZJHMVHqWspqlWFaA559-65" vertex="1">
          <mxGeometry x="160" width="120" height="120" as="geometry">
            <mxRectangle width="120" height="120" as="alternateBounds" />
          </mxGeometry>
        </mxCell>
        <mxCell id="zZJHMVHqWspqlWFaA559-68" value="" style="swimlane;swimlaneHead=0;swimlaneBody=0;fontStyle=0;connectable=0;strokeColor=inherit;fillColor=none;startSize=0;collapsible=0;recursiveResize=0;expand=0;" parent="zZJHMVHqWspqlWFaA559-65" vertex="1">
          <mxGeometry x="280" width="120" height="120" as="geometry">
            <mxRectangle width="120" height="120" as="alternateBounds" />
          </mxGeometry>
        </mxCell>
        <mxCell id="zZJHMVHqWspqlWFaA559-69" value="" style="swimlane;swimlaneHead=0;swimlaneBody=0;fontStyle=0;connectable=0;strokeColor=inherit;fillColor=none;startSize=0;collapsible=0;recursiveResize=0;expand=0;" parent="zZJHMVHqWspqlWFaA559-65" vertex="1">
          <mxGeometry x="400" width="120" height="120" as="geometry">
            <mxRectangle width="120" height="120" as="alternateBounds" />
          </mxGeometry>
        </mxCell>
        <mxCell id="zZJHMVHqWspqlWFaA559-70" value="" style="shape=tableRow;horizontal=0;swimlaneHead=0;swimlaneBody=0;top=0;left=0;strokeColor=inherit;bottom=0;right=0;dropTarget=0;fontStyle=0;fillColor=none;points=[[0,0.5],[1,0.5]];portConstraint=eastwest;startSize=40;collapsible=0;recursiveResize=0;expand=0;" parent="zZJHMVHqWspqlWFaA559-54" vertex="1">
          <mxGeometry y="400" width="520" height="120" as="geometry" />
        </mxCell>
        <mxCell id="zZJHMVHqWspqlWFaA559-71" value="" style="swimlane;swimlaneHead=0;swimlaneBody=0;fontStyle=0;connectable=0;strokeColor=inherit;fillColor=none;startSize=0;collapsible=0;recursiveResize=0;expand=0;" parent="zZJHMVHqWspqlWFaA559-70" vertex="1">
          <mxGeometry x="40" width="120" height="120" as="geometry">
            <mxRectangle width="120" height="120" as="alternateBounds" />
          </mxGeometry>
        </mxCell>
        <mxCell id="zZJHMVHqWspqlWFaA559-72" value="" style="swimlane;swimlaneHead=0;swimlaneBody=0;fontStyle=0;connectable=0;strokeColor=inherit;fillColor=none;startSize=0;collapsible=0;recursiveResize=0;expand=0;" parent="zZJHMVHqWspqlWFaA559-70" vertex="1">
          <mxGeometry x="160" width="120" height="120" as="geometry">
            <mxRectangle width="120" height="120" as="alternateBounds" />
          </mxGeometry>
        </mxCell>
        <mxCell id="zZJHMVHqWspqlWFaA559-73" value="" style="swimlane;swimlaneHead=0;swimlaneBody=0;fontStyle=0;connectable=0;strokeColor=inherit;fillColor=none;startSize=0;collapsible=0;recursiveResize=0;expand=0;" parent="zZJHMVHqWspqlWFaA559-70" vertex="1">
          <mxGeometry x="280" width="120" height="120" as="geometry">
            <mxRectangle width="120" height="120" as="alternateBounds" />
          </mxGeometry>
        </mxCell>
        <mxCell id="zZJHMVHqWspqlWFaA559-74" value="" style="swimlane;swimlaneHead=0;swimlaneBody=0;fontStyle=0;connectable=0;strokeColor=inherit;fillColor=none;startSize=0;collapsible=0;recursiveResize=0;expand=0;" parent="zZJHMVHqWspqlWFaA559-70" vertex="1">
          <mxGeometry x="400" width="120" height="120" as="geometry">
            <mxRectangle width="120" height="120" as="alternateBounds" />
          </mxGeometry>
        </mxCell>
        <mxCell id="zZJHMVHqWspqlWFaA559-75" value="" style="shape=tableRow;horizontal=0;swimlaneHead=0;swimlaneBody=0;top=0;left=0;strokeColor=inherit;bottom=0;right=0;dropTarget=0;fontStyle=0;fillColor=none;points=[[0,0.5],[1,0.5]];portConstraint=eastwest;startSize=40;collapsible=0;recursiveResize=0;expand=0;" parent="zZJHMVHqWspqlWFaA559-54" vertex="1">
          <mxGeometry y="520" width="520" height="120" as="geometry" />
        </mxCell>
        <mxCell id="zZJHMVHqWspqlWFaA559-76" value="" style="swimlane;swimlaneHead=0;swimlaneBody=0;fontStyle=0;connectable=0;strokeColor=inherit;fillColor=none;startSize=0;collapsible=0;recursiveResize=0;expand=0;" parent="zZJHMVHqWspqlWFaA559-75" vertex="1">
          <mxGeometry x="40" width="120" height="120" as="geometry">
            <mxRectangle width="120" height="120" as="alternateBounds" />
          </mxGeometry>
        </mxCell>
        <mxCell id="zZJHMVHqWspqlWFaA559-77" value="" style="swimlane;swimlaneHead=0;swimlaneBody=0;fontStyle=0;connectable=0;strokeColor=inherit;fillColor=none;startSize=0;collapsible=0;recursiveResize=0;expand=0;" parent="zZJHMVHqWspqlWFaA559-75" vertex="1">
          <mxGeometry x="160" width="120" height="120" as="geometry">
            <mxRectangle width="120" height="120" as="alternateBounds" />
          </mxGeometry>
        </mxCell>
        <mxCell id="zZJHMVHqWspqlWFaA559-78" value="" style="swimlane;swimlaneHead=0;swimlaneBody=0;fontStyle=0;connectable=0;strokeColor=inherit;fillColor=none;startSize=0;collapsible=0;recursiveResize=0;expand=0;" parent="zZJHMVHqWspqlWFaA559-75" vertex="1">
          <mxGeometry x="280" width="120" height="120" as="geometry">
            <mxRectangle width="120" height="120" as="alternateBounds" />
          </mxGeometry>
        </mxCell>
        <mxCell id="zZJHMVHqWspqlWFaA559-79" value="" style="swimlane;swimlaneHead=0;swimlaneBody=0;fontStyle=0;connectable=0;strokeColor=inherit;fillColor=none;startSize=0;collapsible=0;recursiveResize=0;expand=0;" parent="zZJHMVHqWspqlWFaA559-75" vertex="1">
          <mxGeometry x="400" width="120" height="120" as="geometry">
            <mxRectangle width="120" height="120" as="alternateBounds" />
          </mxGeometry>
        </mxCell>
        <mxCell id="TFHUqVvF181P1IRJi5gQ-1" value="" style="shape=table;childLayout=tableLayout;startSize=0;collapsible=0;recursiveResize=0;expand=0;dashed=1;" vertex="1" parent="1">
          <mxGeometry x="-820" y="-970" width="775" height="551" as="geometry" />
        </mxCell>
        <mxCell id="TFHUqVvF181P1IRJi5gQ-2" value="Zeitslot 1Â Â Â Â Â Â Â Â Â Â Â Â Â Â Â  " style="shape=tableRow;horizontal=0;swimlaneHead=0;swimlaneBody=0;top=0;left=0;bottom=0;right=0;dropTarget=0;fontStyle=0;points=[[0,0.5],[1,0.5]];portConstraint=eastwest;startSize=40;collapsible=0;recursiveResize=0;expand=0;fillColor=default;dashed=1;" vertex="1" parent="TFHUqVvF181P1IRJi5gQ-1">
          <mxGeometry width="775" height="170" as="geometry" />
        </mxCell>
        <mxCell id="TFHUqVvF181P1IRJi5gQ-3" value="Montag&#xa;Datum" style="swimlane;swimlaneHead=0;swimlaneBody=0;fontStyle=0;connectable=0;startSize=60;collapsible=0;recursiveResize=0;expand=0;dashed=1;" vertex="1" parent="TFHUqVvF181P1IRJi5gQ-2">
          <mxGeometry x="40" width="105" height="170" as="geometry">
            <mxRectangle width="105" height="170" as="alternateBounds" />
          </mxGeometry>
        </mxCell>
        <mxCell id="TFHUqVvF181P1IRJi5gQ-4" value="&lt;div align=&quot;left&quot;&gt;&lt;div align=&quot;left&quot;&gt;&lt;font color=&quot;#4f688c&quot;&gt;Eintrag gebuchter Termin mit allen Details&lt;/font&gt;&lt;/div&gt;&lt;font color=&quot;#4f688c&quot;&gt;&lt;/font&gt;&lt;/div&gt;" style="rounded=0;whiteSpace=wrap;html=1;fillColor=#dae8fc;strokeColor=#6c8ebf;" vertex="1" parent="TFHUqVvF181P1IRJi5gQ-3">
          <mxGeometry x="-1.39" y="60" width="105" height="110" as="geometry" />
        </mxCell>
        <mxCell id="TFHUqVvF181P1IRJi5gQ-5" value="Dienstag&#xa;Datum" style="swimlane;swimlaneHead=0;swimlaneBody=0;fontStyle=0;connectable=0;startSize=60;collapsible=0;recursiveResize=0;expand=0;dashed=1;" vertex="1" parent="TFHUqVvF181P1IRJi5gQ-2">
          <mxGeometry x="145" width="105" height="170" as="geometry">
            <mxRectangle width="105" height="170" as="alternateBounds" />
          </mxGeometry>
        </mxCell>
        <mxCell id="TFHUqVvF181P1IRJi5gQ-6" value="Mittwoch&#xa;Datum" style="swimlane;swimlaneHead=0;swimlaneBody=0;fontStyle=0;connectable=0;startSize=60;collapsible=0;recursiveResize=0;expand=0;dashed=1;" vertex="1" parent="TFHUqVvF181P1IRJi5gQ-2">
          <mxGeometry x="250" width="105" height="170" as="geometry">
            <mxRectangle width="105" height="170" as="alternateBounds" />
          </mxGeometry>
        </mxCell>
        <mxCell id="TFHUqVvF181P1IRJi5gQ-7" value="Donnerstag&#xa;Datum" style="swimlane;swimlaneHead=0;swimlaneBody=0;fontStyle=0;connectable=0;startSize=60;collapsible=0;recursiveResize=0;expand=0;dashed=1;" vertex="1" parent="TFHUqVvF181P1IRJi5gQ-2">
          <mxGeometry x="355" width="105" height="170" as="geometry">
            <mxRectangle width="105" height="170" as="alternateBounds" />
          </mxGeometry>
        </mxCell>
        <mxCell id="TFHUqVvF181P1IRJi5gQ-8" value="Freitag&#xa;Datum" style="swimlane;swimlaneHead=0;swimlaneBody=0;fontStyle=0;connectable=0;startSize=60;collapsible=0;recursiveResize=0;expand=0;dashed=1;" vertex="1" parent="TFHUqVvF181P1IRJi5gQ-2">
          <mxGeometry x="460" width="105" height="170" as="geometry">
            <mxRectangle width="105" height="170" as="alternateBounds" />
          </mxGeometry>
        </mxCell>
        <mxCell id="TFHUqVvF181P1IRJi5gQ-9" value="Samstag&#xa;Datum" style="swimlane;swimlaneHead=0;swimlaneBody=0;fontStyle=0;connectable=0;startSize=60;collapsible=0;recursiveResize=0;expand=0;dashed=1;" vertex="1" parent="TFHUqVvF181P1IRJi5gQ-2">
          <mxGeometry x="565" width="105" height="170" as="geometry">
            <mxRectangle width="105" height="170" as="alternateBounds" />
          </mxGeometry>
        </mxCell>
        <mxCell id="TFHUqVvF181P1IRJi5gQ-10" value="Sonntag&#xa;Datum" style="swimlane;swimlaneHead=0;swimlaneBody=0;fontStyle=0;strokeColor=inherit;connectable=0;fillColor=none;startSize=60;collapsible=0;recursiveResize=0;expand=0;dashed=1;" vertex="1" parent="TFHUqVvF181P1IRJi5gQ-2">
          <mxGeometry x="670" width="105" height="170" as="geometry">
            <mxRectangle width="105" height="170" as="alternateBounds" />
          </mxGeometry>
        </mxCell>
        <mxCell id="TFHUqVvF181P1IRJi5gQ-11" value="Zeitslot 2" style="shape=tableRow;horizontal=0;swimlaneHead=0;swimlaneBody=0;top=0;left=0;bottom=0;right=0;dropTarget=0;fontStyle=0;points=[[0,0.5],[1,0.5]];portConstraint=eastwest;startSize=40;collapsible=0;recursiveResize=0;expand=0;dashed=1;" vertex="1" parent="TFHUqVvF181P1IRJi5gQ-1">
          <mxGeometry y="170" width="775" height="126" as="geometry" />
        </mxCell>
        <mxCell id="TFHUqVvF181P1IRJi5gQ-12" value="" style="swimlane;swimlaneHead=0;swimlaneBody=0;fontStyle=0;connectable=0;startSize=0;collapsible=0;recursiveResize=0;expand=0;dashed=1;" vertex="1" parent="TFHUqVvF181P1IRJi5gQ-11">
          <mxGeometry x="40" width="105" height="126" as="geometry">
            <mxRectangle width="105" height="126" as="alternateBounds" />
          </mxGeometry>
        </mxCell>
        <mxCell id="TFHUqVvF181P1IRJi5gQ-13" value="" style="swimlane;swimlaneHead=0;swimlaneBody=0;fontStyle=0;connectable=0;startSize=0;collapsible=0;recursiveResize=0;expand=0;dashed=1;" vertex="1" parent="TFHUqVvF181P1IRJi5gQ-11">
          <mxGeometry x="145" width="105" height="126" as="geometry">
            <mxRectangle width="105" height="126" as="alternateBounds" />
          </mxGeometry>
        </mxCell>
        <mxCell id="TFHUqVvF181P1IRJi5gQ-14" value="&lt;div align=&quot;left&quot;&gt;&lt;font color=&quot;#4f688c&quot;&gt;Eintrag gebuchter Termin mit allen Details&lt;/font&gt;&lt;/div&gt;" style="rounded=0;whiteSpace=wrap;html=1;fillColor=#dae8fc;strokeColor=#6c8ebf;" vertex="1" parent="TFHUqVvF181P1IRJi5gQ-13">
          <mxGeometry y="-2" width="105" height="130" as="geometry" />
        </mxCell>
        <mxCell id="TFHUqVvF181P1IRJi5gQ-15" value="" style="swimlane;swimlaneHead=0;swimlaneBody=0;fontStyle=0;connectable=0;startSize=0;collapsible=0;recursiveResize=0;expand=0;dashed=1;" vertex="1" parent="TFHUqVvF181P1IRJi5gQ-11">
          <mxGeometry x="250" width="105" height="126" as="geometry">
            <mxRectangle width="105" height="126" as="alternateBounds" />
          </mxGeometry>
        </mxCell>
        <mxCell id="TFHUqVvF181P1IRJi5gQ-16" value="" style="swimlane;swimlaneHead=0;swimlaneBody=0;fontStyle=0;connectable=0;startSize=0;collapsible=0;recursiveResize=0;expand=0;dashed=1;" vertex="1" parent="TFHUqVvF181P1IRJi5gQ-15">
          <mxGeometry y="-2" width="105" height="129" as="geometry">
            <mxRectangle width="105" height="129" as="alternateBounds" />
          </mxGeometry>
        </mxCell>
        <mxCell id="TFHUqVvF181P1IRJi5gQ-17" value="&lt;div align=&quot;left&quot;&gt;&lt;div align=&quot;left&quot;&gt;&lt;font color=&quot;#4f688c&quot;&gt;Eintrag gebuchter Termin mit allen Details&lt;/font&gt;&lt;/div&gt;&lt;font color=&quot;#4f688c&quot;&gt;&lt;/font&gt;&lt;/div&gt;" style="rounded=0;whiteSpace=wrap;html=1;fillColor=#dae8fc;strokeColor=#6c8ebf;" vertex="1" parent="TFHUqVvF181P1IRJi5gQ-16">
          <mxGeometry width="105" height="130" as="geometry" />
        </mxCell>
        <mxCell id="TFHUqVvF181P1IRJi5gQ-18" value="" style="swimlane;swimlaneHead=0;swimlaneBody=0;fontStyle=0;connectable=0;startSize=0;collapsible=0;recursiveResize=0;expand=0;dashed=1;" vertex="1" parent="TFHUqVvF181P1IRJi5gQ-11">
          <mxGeometry x="355" width="105" height="126" as="geometry">
            <mxRectangle width="105" height="126" as="alternateBounds" />
          </mxGeometry>
        </mxCell>
        <mxCell id="TFHUqVvF181P1IRJi5gQ-19" value="" style="swimlane;swimlaneHead=0;swimlaneBody=0;fontStyle=0;connectable=0;startSize=0;collapsible=0;recursiveResize=0;expand=0;dashed=1;" vertex="1" parent="TFHUqVvF181P1IRJi5gQ-11">
          <mxGeometry x="460" width="105" height="126" as="geometry">
            <mxRectangle width="105" height="126" as="alternateBounds" />
          </mxGeometry>
        </mxCell>
        <mxCell id="TFHUqVvF181P1IRJi5gQ-20" value="&lt;div align=&quot;left&quot;&gt;&lt;div align=&quot;left&quot;&gt;&lt;font color=&quot;#4f688c&quot;&gt;Eintrag gebuchter Termin mit allen Details&lt;/font&gt;&lt;/div&gt;&lt;font color=&quot;#4f688c&quot;&gt;&lt;/font&gt;&lt;/div&gt;" style="rounded=0;whiteSpace=wrap;html=1;fillColor=#dae8fc;strokeColor=#6c8ebf;" vertex="1" parent="TFHUqVvF181P1IRJi5gQ-19">
          <mxGeometry x="-1.7763568394002505e-15" y="-1" width="105" height="130" as="geometry" />
        </mxCell>
        <mxCell id="TFHUqVvF181P1IRJi5gQ-21" value="" style="swimlane;swimlaneHead=0;swimlaneBody=0;fontStyle=0;connectable=0;startSize=0;collapsible=0;recursiveResize=0;expand=0;dashed=1;" vertex="1" parent="TFHUqVvF181P1IRJi5gQ-11">
          <mxGeometry x="565" width="105" height="126" as="geometry">
            <mxRectangle width="105" height="126" as="alternateBounds" />
          </mxGeometry>
        </mxCell>
        <mxCell id="TFHUqVvF181P1IRJi5gQ-22" value="" style="swimlane;swimlaneHead=0;swimlaneBody=0;fontStyle=0;connectable=0;strokeColor=inherit;fillColor=none;startSize=0;collapsible=0;recursiveResize=0;expand=0;dashed=1;" vertex="1" parent="TFHUqVvF181P1IRJi5gQ-11">
          <mxGeometry x="670" width="105" height="126" as="geometry">
            <mxRectangle width="105" height="126" as="alternateBounds" />
          </mxGeometry>
        </mxCell>
        <mxCell id="TFHUqVvF181P1IRJi5gQ-23" value="Zeitslot 3" style="shape=tableRow;horizontal=0;swimlaneHead=0;swimlaneBody=0;top=0;left=0;bottom=0;right=0;dropTarget=0;fontStyle=0;points=[[0,0.5],[1,0.5]];portConstraint=eastwest;startSize=40;collapsible=0;recursiveResize=0;expand=0;dashed=1;" vertex="1" parent="TFHUqVvF181P1IRJi5gQ-1">
          <mxGeometry y="296" width="775" height="129" as="geometry" />
        </mxCell>
        <mxCell id="TFHUqVvF181P1IRJi5gQ-24" value="" style="swimlane;swimlaneHead=0;swimlaneBody=0;fontStyle=0;connectable=0;startSize=0;collapsible=0;recursiveResize=0;expand=0;dashed=1;" vertex="1" parent="TFHUqVvF181P1IRJi5gQ-23">
          <mxGeometry x="40" width="105" height="129" as="geometry">
            <mxRectangle width="105" height="129" as="alternateBounds" />
          </mxGeometry>
        </mxCell>
        <mxCell id="TFHUqVvF181P1IRJi5gQ-25" value="" style="swimlane;swimlaneHead=0;swimlaneBody=0;fontStyle=0;connectable=0;startSize=0;collapsible=0;recursiveResize=0;expand=0;dashed=1;" vertex="1" parent="TFHUqVvF181P1IRJi5gQ-23">
          <mxGeometry x="145" width="105" height="129" as="geometry">
            <mxRectangle width="105" height="129" as="alternateBounds" />
          </mxGeometry>
        </mxCell>
        <mxCell id="TFHUqVvF181P1IRJi5gQ-26" value="" style="swimlane;swimlaneHead=0;swimlaneBody=0;fontStyle=0;connectable=0;startSize=0;collapsible=0;recursiveResize=0;expand=0;dashed=1;" vertex="1" parent="TFHUqVvF181P1IRJi5gQ-25">
          <mxGeometry x="6" y="4.5" width="105" height="129" as="geometry">
            <mxRectangle width="105" height="129" as="alternateBounds" />
          </mxGeometry>
        </mxCell>
        <mxCell id="TFHUqVvF181P1IRJi5gQ-27" value="&lt;div align=&quot;left&quot;&gt;&lt;div align=&quot;left&quot;&gt;&lt;font color=&quot;#4f688c&quot;&gt;Eintrag gebuchter Termin mit allen Details&lt;/font&gt;&lt;/div&gt;&lt;font color=&quot;#4f688c&quot;&gt;&lt;/font&gt;&lt;/div&gt;" style="rounded=0;whiteSpace=wrap;html=1;fillColor=#dae8fc;strokeColor=#6c8ebf;" vertex="1" parent="TFHUqVvF181P1IRJi5gQ-26">
          <mxGeometry x="-5" y="-1" width="105" height="130" as="geometry" />
        </mxCell>
        <mxCell id="TFHUqVvF181P1IRJi5gQ-28" value="" style="swimlane;swimlaneHead=0;swimlaneBody=0;fontStyle=0;connectable=0;startSize=0;collapsible=0;recursiveResize=0;expand=0;dashed=1;" vertex="1" parent="TFHUqVvF181P1IRJi5gQ-23">
          <mxGeometry x="250" width="105" height="129" as="geometry">
            <mxRectangle width="105" height="129" as="alternateBounds" />
          </mxGeometry>
        </mxCell>
        <mxCell id="TFHUqVvF181P1IRJi5gQ-29" value="" style="swimlane;swimlaneHead=0;swimlaneBody=0;fontStyle=0;connectable=0;startSize=0;collapsible=0;recursiveResize=0;expand=0;dashed=1;" vertex="1" parent="TFHUqVvF181P1IRJi5gQ-23">
          <mxGeometry x="355" width="105" height="129" as="geometry">
            <mxRectangle width="105" height="129" as="alternateBounds" />
          </mxGeometry>
        </mxCell>
        <mxCell id="TFHUqVvF181P1IRJi5gQ-30" value="&lt;div align=&quot;left&quot;&gt;&lt;div align=&quot;left&quot;&gt;&lt;font color=&quot;#4f688c&quot;&gt;Eintrag gebuchter Termin mit allen Details&lt;/font&gt;&lt;/div&gt;&lt;font color=&quot;#4f688c&quot;&gt;&lt;/font&gt;&lt;/div&gt;" style="rounded=0;whiteSpace=wrap;html=1;fillColor=#dae8fc;strokeColor=#6c8ebf;" vertex="1" parent="TFHUqVvF181P1IRJi5gQ-29">
          <mxGeometry width="105" height="130" as="geometry" />
        </mxCell>
        <mxCell id="TFHUqVvF181P1IRJi5gQ-31" value="" style="shape=flexArrow;endArrow=classic;html=1;rounded=0;width=6;endSize=5.45;strokeWidth=2;endWidth=15;" edge="1" parent="TFHUqVvF181P1IRJi5gQ-29">
          <mxGeometry width="50" height="50" relative="1" as="geometry">
            <mxPoint x="126" y="114" as="sourcePoint" />
            <mxPoint x="96" y="104" as="targetPoint" />
          </mxGeometry>
        </mxCell>
        <mxCell id="TFHUqVvF181P1IRJi5gQ-32" value="" style="swimlane;swimlaneHead=0;swimlaneBody=0;fontStyle=0;connectable=0;startSize=0;collapsible=0;recursiveResize=0;expand=0;dashed=1;" vertex="1" parent="TFHUqVvF181P1IRJi5gQ-23">
          <mxGeometry x="460" width="105" height="129" as="geometry">
            <mxRectangle width="105" height="129" as="alternateBounds" />
          </mxGeometry>
        </mxCell>
        <mxCell id="TFHUqVvF181P1IRJi5gQ-34" value="" style="swimlane;swimlaneHead=0;swimlaneBody=0;fontStyle=0;connectable=0;startSize=0;collapsible=0;recursiveResize=0;expand=0;dashed=1;" vertex="1" parent="TFHUqVvF181P1IRJi5gQ-23">
          <mxGeometry x="565" width="105" height="129" as="geometry">
            <mxRectangle width="105" height="129" as="alternateBounds" />
          </mxGeometry>
        </mxCell>
        <mxCell id="TFHUqVvF181P1IRJi5gQ-35" value="" style="swimlane;swimlaneHead=0;swimlaneBody=0;fontStyle=0;connectable=0;strokeColor=inherit;fillColor=none;startSize=0;collapsible=0;recursiveResize=0;expand=0;dashed=1;" vertex="1" parent="TFHUqVvF181P1IRJi5gQ-23">
          <mxGeometry x="670" width="105" height="129" as="geometry">
            <mxRectangle width="105" height="129" as="alternateBounds" />
          </mxGeometry>
        </mxCell>
        <mxCell id="TFHUqVvF181P1IRJi5gQ-36" value="Zeitslot 4" style="shape=tableRow;horizontal=0;swimlaneHead=0;swimlaneBody=0;top=0;left=0;bottom=0;right=0;dropTarget=0;fontStyle=0;points=[[0,0.5],[1,0.5]];portConstraint=eastwest;startSize=40;collapsible=0;recursiveResize=0;expand=0;dashed=1;" vertex="1" parent="TFHUqVvF181P1IRJi5gQ-1">
          <mxGeometry y="425" width="775" height="126" as="geometry" />
        </mxCell>
        <mxCell id="TFHUqVvF181P1IRJi5gQ-37" value="" style="swimlane;swimlaneHead=0;swimlaneBody=0;fontStyle=0;connectable=0;strokeColor=inherit;fillColor=none;startSize=0;collapsible=0;recursiveResize=0;expand=0;dashed=1;" vertex="1" parent="TFHUqVvF181P1IRJi5gQ-36">
          <mxGeometry x="40" width="105" height="126" as="geometry">
            <mxRectangle width="105" height="126" as="alternateBounds" />
          </mxGeometry>
        </mxCell>
        <mxCell id="TFHUqVvF181P1IRJi5gQ-38" value="" style="swimlane;swimlaneHead=0;swimlaneBody=0;fontStyle=0;connectable=0;strokeColor=inherit;fillColor=none;startSize=0;collapsible=0;recursiveResize=0;expand=0;dashed=1;" vertex="1" parent="TFHUqVvF181P1IRJi5gQ-36">
          <mxGeometry x="145" width="105" height="126" as="geometry">
            <mxRectangle width="105" height="126" as="alternateBounds" />
          </mxGeometry>
        </mxCell>
        <mxCell id="TFHUqVvF181P1IRJi5gQ-39" value="" style="swimlane;swimlaneHead=0;swimlaneBody=0;fontStyle=0;connectable=0;strokeColor=inherit;fillColor=none;startSize=0;collapsible=0;recursiveResize=0;expand=0;dashed=1;" vertex="1" parent="TFHUqVvF181P1IRJi5gQ-36">
          <mxGeometry x="250" width="105" height="126" as="geometry">
            <mxRectangle width="105" height="126" as="alternateBounds" />
          </mxGeometry>
        </mxCell>
        <mxCell id="TFHUqVvF181P1IRJi5gQ-40" value="" style="swimlane;swimlaneHead=0;swimlaneBody=0;fontStyle=0;connectable=0;strokeColor=inherit;fillColor=none;startSize=0;collapsible=0;recursiveResize=0;expand=0;dashed=1;" vertex="1" parent="TFHUqVvF181P1IRJi5gQ-36">
          <mxGeometry x="355" width="105" height="126" as="geometry">
            <mxRectangle width="105" height="126" as="alternateBounds" />
          </mxGeometry>
        </mxCell>
        <mxCell id="TFHUqVvF181P1IRJi5gQ-41" value="" style="swimlane;swimlaneHead=0;swimlaneBody=0;fontStyle=0;connectable=0;strokeColor=inherit;fillColor=none;startSize=0;collapsible=0;recursiveResize=0;expand=0;dashed=1;" vertex="1" parent="TFHUqVvF181P1IRJi5gQ-36">
          <mxGeometry x="460" width="105" height="126" as="geometry">
            <mxRectangle width="105" height="126" as="alternateBounds" />
          </mxGeometry>
        </mxCell>
        <mxCell id="TFHUqVvF181P1IRJi5gQ-42" value="" style="swimlane;swimlaneHead=0;swimlaneBody=0;fontStyle=0;connectable=0;strokeColor=inherit;fillColor=none;startSize=0;collapsible=0;recursiveResize=0;expand=0;dashed=1;" vertex="1" parent="TFHUqVvF181P1IRJi5gQ-36">
          <mxGeometry x="565" width="105" height="126" as="geometry">
            <mxRectangle width="105" height="126" as="alternateBounds" />
          </mxGeometry>
        </mxCell>
        <mxCell id="TFHUqVvF181P1IRJi5gQ-43" value="" style="swimlane;swimlaneHead=0;swimlaneBody=0;fontStyle=0;connectable=0;strokeColor=inherit;fillColor=none;startSize=0;collapsible=0;recursiveResize=0;expand=0;dashed=1;" vertex="1" parent="TFHUqVvF181P1IRJi5gQ-36">
          <mxGeometry x="670" width="105" height="126" as="geometry">
            <mxRectangle width="105" height="126" as="alternateBounds" />
          </mxGeometry>
        </mxCell>
        <mxCell id="TFHUqVvF181P1IRJi5gQ-44" value="&lt;font style=&quot;font-size: 24px;&quot; color=&quot;#ffffff&quot;&gt;&lt;b&gt;Mockup Kalender Buchende Startseite&lt;/b&gt;&lt;/font&gt;" style="rounded=0;whiteSpace=wrap;html=1;fillColor=#6a00ff;strokeColor=#3700CC;fontColor=#ffffff;" vertex="1" parent="1">
          <mxGeometry x="-827" y="-1160" width="827" height="70" as="geometry" />
        </mxCell>
      </root>
    </mxGraphModel>
  </diagram>
</mxfile>
